<svg preserveAspectRatio="none" width="100%" height="100%" overflow="visible" style="display: block;" viewBox="0 0 24 24" fill="none" xmlns="http://www.w3.org/2000/svg">
<g id="PenNib">
<path id="Vector" d="M23.25 8.68875C23.2506 8.49169 23.2121 8.29648 23.1366 8.11445C23.0611 7.93243 22.9502 7.76722 22.8103 7.62844L16.3716 1.18875C16.2323 1.04943 16.0669 0.938906 15.8849 0.863503C15.7029 0.788099 15.5078 0.749289 15.3108 0.749289C15.1138 0.749289 14.9187 0.788099 14.7367 0.863503C14.5547 0.938906 14.3893 1.04943 14.25 1.18875L11.5847 3.85406L6.14719 5.895C5.90007 5.98716 5.68149 6.14262 5.51334 6.34582C5.34519 6.54901 5.23336 6.79281 5.18906 7.05281L3.01031 20.1262C2.99233 20.2337 2.99799 20.3438 3.02688 20.4489C3.05577 20.5539 3.10721 20.6514 3.17761 20.7346C3.24801 20.8178 3.33569 20.8846 3.43454 20.9304C3.53339 20.9762 3.64104 21 3.75 21C3.79146 20.9998 3.83284 20.9964 3.87375 20.9897L16.9462 18.8109C17.2059 18.7676 17.4496 18.6567 17.6529 18.4893C17.8561 18.322 18.0117 18.1041 18.1041 17.8575L20.145 12.42L22.8103 9.75C22.9503 9.61107 23.0612 9.44571 23.1367 9.26352C23.2122 9.08133 23.2507 8.88596 23.25 8.68875ZM16.6997 17.3316L5.93625 19.125L10.3772 14.6841C10.9319 14.9838 11.5759 15.074 12.1915 14.9379C12.8072 14.8019 13.3533 14.4489 13.7301 13.9433C14.1068 13.4378 14.289 12.8135 14.2434 12.1847C14.1977 11.5558 13.9272 10.9644 13.4814 10.5186C13.0356 10.0728 12.4442 9.80229 11.8153 9.75664C11.1865 9.71098 10.5622 9.89318 10.0567 10.2699C9.55114 10.6467 9.19808 11.1928 9.06207 11.8085C8.92605 12.4241 9.01617 13.0681 9.31594 13.6228L4.875 18.0656L6.66844 7.29938L11.8125 5.37094L18.6281 12.1875L16.6997 17.3316ZM10.5 12.375C10.5 12.1525 10.566 11.935 10.6896 11.75C10.8132 11.565 10.9889 11.4208 11.1945 11.3356C11.4 11.2505 11.6262 11.2282 11.8445 11.2716C12.0627 11.315 12.2632 11.4222 12.4205 11.5795C12.5778 11.7368 12.685 11.9373 12.7284 12.1555C12.7718 12.3738 12.7495 12.6 12.6644 12.8055C12.5792 13.0111 12.435 13.1868 12.25 13.3104C12.065 13.434 11.8475 13.5 11.625 13.5C11.3266 13.5 11.0405 13.3815 10.8295 13.1705C10.6185 12.9595 10.5 12.6734 10.5 12.375ZM19.5 10.9388L13.0603 4.5L15.3103 2.25L21.75 8.68875L19.5 10.9388Z" fill="var(--fill-0, white)"/>
</g>
</svg>
