<svg preserveAspectRatio="none" width="100%" height="100%" overflow="visible" style="display: block;" viewBox="0 0 24 24" fill="none" xmlns="http://www.w3.org/2000/svg">
<g id="Polygon">
<path id="Vector" d="M21.6225 4.6275C21.3439 4.34885 21.0132 4.12781 20.6491 3.97701C20.2851 3.8262 19.895 3.74858 19.5009 3.74858C19.1069 3.74858 18.7167 3.8262 18.3527 3.97701C17.9887 4.12781 17.658 4.34885 17.3794 4.6275C17.1906 4.81621 17.0279 5.02936 16.8956 5.26125L14.25 4.53938C14.2582 3.94253 14.0881 3.3568 13.7616 2.85714C13.435 2.35747 12.9669 1.96657 12.4169 1.73444C11.867 1.50231 11.2604 1.43951 10.6745 1.55406C10.0887 1.66862 9.55041 1.95532 9.12844 2.3775C8.67788 2.82912 8.38271 3.41239 8.28563 4.0429C8.18855 4.67341 8.2946 5.31845 8.58844 5.88469L5.40656 8.74875C4.82927 8.36719 4.13796 8.19659 3.44943 8.26577C2.7609 8.33494 2.11735 8.63966 1.6275 9.12844C1.07978 9.672 0.762582 10.4057 0.74182 11.1771C0.721058 11.9485 0.998331 12.6982 1.51602 13.2704C2.0337 13.8427 2.75198 14.1934 3.52158 14.2498C4.29117 14.3062 5.05289 14.0638 5.64844 13.5731L12.2109 18.3881C12.0009 18.914 11.944 19.4887 12.0469 20.0456C12.1497 20.6024 12.4081 21.1188 12.7921 21.535C13.1761 21.9513 13.6701 22.2503 14.2169 22.3975C14.7638 22.5448 15.3411 22.5342 15.8822 22.3672C16.4233 22.2001 16.906 21.8832 17.2746 21.4533C17.6432 21.0234 17.8825 20.4979 17.965 19.9376C18.0475 19.3773 17.9697 18.8052 17.7406 18.2873C17.5116 17.7694 17.1406 17.3269 16.6706 17.0109L19.2384 9.73688C19.3247 9.74438 19.4109 9.74813 19.4972 9.74813C20.0904 9.74804 20.6703 9.57207 21.1635 9.24248C21.6568 8.91289 22.0412 8.44447 22.2683 7.89642C22.4953 7.34838 22.5548 6.74531 22.4392 6.16347C22.3236 5.58162 22.0381 5.04711 21.6188 4.6275H21.6225ZM10.185 3.43781C10.3948 3.2282 10.6621 3.08551 10.953 3.02776C11.244 2.97002 11.5455 2.99982 11.8195 3.1134C12.0935 3.22698 12.3276 3.41924 12.4924 3.66588C12.6571 3.91252 12.7451 4.20246 12.7451 4.49906C12.7451 4.79566 12.6571 5.08561 12.4924 5.33224C12.3276 5.57888 12.0935 5.77114 11.8195 5.88472C11.5455 5.9983 11.244 6.02811 10.953 5.97036C10.6621 5.91262 10.3948 5.76992 10.185 5.56031C10.0458 5.42076 9.93543 5.25513 9.86027 5.0729C9.7851 4.89067 9.7466 4.69541 9.74694 4.49829C9.74729 4.30116 9.78649 4.10604 9.8623 3.92408C9.93811 3.74211 10.049 3.57688 10.1888 3.43781H10.185ZM2.685 12.3113C2.54554 12.1719 2.4349 12.0065 2.35941 11.8244C2.28392 11.6423 2.24507 11.4471 2.24507 11.25C2.24507 11.0529 2.28392 10.8577 2.35941 10.6756C2.4349 10.4935 2.54554 10.3281 2.685 10.1888C2.89485 9.97914 3.16212 9.83644 3.45305 9.7787C3.74397 9.72096 4.04549 9.75076 4.31948 9.86434C4.59347 9.97792 4.82764 10.1702 4.99239 10.4168C5.15714 10.6635 5.24507 10.9534 5.24507 11.25C5.24507 11.5466 5.15714 11.8365 4.99239 12.0832C4.82764 12.3298 4.59347 12.5221 4.31948 12.6357C4.04549 12.7492 3.74397 12.779 3.45305 12.7213C3.16212 12.6636 2.89485 12.5209 2.685 12.3113ZM16.0584 20.5613C15.7771 20.8426 15.3955 21.0006 14.9977 21.0006C14.5998 21.0006 14.2182 20.8426 13.9369 20.5613C13.6555 20.2799 13.4975 19.8983 13.4975 19.5005C13.4975 19.1026 13.6555 18.721 13.9369 18.4397C14.0762 18.3004 14.2416 18.1899 14.4236 18.1145C14.6056 18.0391 14.8007 18.0003 14.9977 18.0003C15.1947 18.0003 15.3897 18.0391 15.5717 18.1145C15.7538 18.1899 15.9191 18.3004 16.0584 18.4397C16.1977 18.579 16.3082 18.7444 16.3836 18.9264C16.459 19.1084 16.4978 19.3035 16.4978 19.5005C16.4978 19.6975 16.459 19.8926 16.3836 20.0746C16.3082 20.2566 16.1977 20.4219 16.0584 20.5613ZM15.2569 16.5131C14.4791 16.4454 13.7056 16.6835 13.1006 17.1769L6.53812 12.3619C6.69716 11.9607 6.76824 11.53 6.74657 11.099C6.7249 10.668 6.61098 10.2467 6.4125 9.86344L9.59531 6.99938C9.93773 7.22632 10.3231 7.38053 10.7276 7.45244C11.132 7.52434 11.5469 7.51242 11.9466 7.41741C12.3462 7.32239 12.7221 7.14631 13.0509 6.90008C13.3797 6.65385 13.6545 6.3427 13.8581 5.98594L16.5 6.70875C16.4928 7.20745 16.6101 7.70007 16.8413 8.14204C17.0724 8.58401 17.4101 8.96137 17.8237 9.24L15.2569 16.5131ZM20.5594 7.80938C20.4222 7.9576 20.2566 8.0766 20.0723 8.15925C19.8881 8.2419 19.689 8.2865 19.4871 8.29037C19.2852 8.29425 19.0846 8.25731 18.8974 8.18178C18.7101 8.10626 18.54 7.99369 18.3972 7.85084C18.2545 7.70799 18.1421 7.53779 18.0667 7.35044C17.9914 7.16309 17.9546 6.96246 17.9587 6.76056C17.9627 6.55867 18.0075 6.35967 18.0903 6.17549C18.1731 5.99132 18.2923 5.82576 18.4406 5.68875C18.722 5.40741 19.1035 5.24936 19.5014 5.24936C19.8993 5.24936 20.2809 5.40741 20.5622 5.68875C20.8435 5.97009 21.0016 6.35166 21.0016 6.74953C21.0016 7.1474 20.8435 7.52898 20.5622 7.81031L20.5594 7.80938Z" fill="var(--fill-0, white)"/>
</g>
</svg>
